# xmcd
#
# Track frame offsets:
#	150
#	18670
#	36092
#	75207
#	106240
#
# Disc length: 1766 seconds
# Revision: 0
# Processed by: cddbd v1.5.2PL0 Copyright (c) Steve Scherf et al.
# Submitted via: dBpowerAMP V12.0
#
DISCID=2c06e405
DTITLE=Selena - I'm Getting Used To You
DYEAR=1996
DGENRE=Pop
TTITLE0=I'm Getting Used To You [Single Version]
TTITLE1=I'm Getting Used To You [Def Radio Mix]
TTITLE2=I'm Getting Used To You [Def Club Mix]
TTITLE3=I'm Getting Used To You [Dub A Dub Mix]
TTITLE4=I'm Getting Used To You [Beatstrumental Mix]
EXTD=
EXTT0=
EXTT1=
EXTT2=
EXTT3=
EXTT4=
PLAYORDER=
